<svg width="36" height="36" viewBox="0 0 36 36" fill="none" xmlns="http://www.w3.org/2000/svg">
<path d="M18 0C14.75 0 11.7188 0.828125 8.90625 2.48438C6.1875 4.04688 4.04688 6.1875 2.48438 8.90625C0.828125 11.7188 0 14.75 0 18C0 21.25 0.828125 24.2812 2.48438 27.0938C4.04688 29.8125 6.1875 31.9531 8.90625 33.5156C11.7188 35.1719 14.75 36 18 36C21.25 36 24.2812 35.1719 27.0938 33.5156C29.8125 31.9531 31.9531 29.8125 33.5156 27.0938C35.1719 24.2812 36 21.25 36 18C36 14.75 35.1719 11.7188 33.5156 8.90625C31.9531 6.1875 29.8125 4.04688 27.0938 2.48438C24.2812 0.828125 21.25 0 18 0ZM18 3C20.7188 3 23.25 3.6875 25.5938 5.0625C27.8438 6.375 29.625 8.15625 30.9375 10.4062C32.3125 12.75 33 15.2812 33 18C33 20.4688 32.4375 22.7812 31.3125 24.9375C30.2188 27.0312 28.6875 28.7812 26.7188 30.1875C24.7812 31.5938 22.625 32.4688 20.25 32.8125V22.3594H24.5156L25.1719 18.0469H20.25V15.6562C20.25 14.6562 20.4062 13.8594 20.7188 13.2656C21.125 12.6094 21.7188 12.2812 22.5 12.2812H25.2188V8.48438H25.1719C24.2031 8.32812 23.0938 8.26562 21.8438 8.29688C17.625 8.26562 15.5156 10.5469 15.5156 15.1406V18.0469H11.4375V22.3594H15.5156V32.7656C13.1719 32.3906 11.0469 31.5 9.14062 30.0938C7.23438 28.6875 5.75 26.9531 4.6875 24.8906C3.5625 22.7344 3 20.4375 3 18C3 15.2812 3.6875 12.75 5.0625 10.4062C6.375 8.15625 8.15625 6.375 10.4062 5.0625C12.75 3.6875 15.2812 3 18 3Z" fill="#1777F2"/>
</svg>
