<svg width="34" height="34" viewBox="0 0 34 34" fill="none" xmlns="http://www.w3.org/2000/svg">
<path d="M7.4375 0.5C6.1875 0.5 5.03125 0.8125 3.96875 1.4375C2.90625 2.0625 2.0625 2.90625 1.4375 3.96875C0.8125 5.03125 0.5 6.1875 0.5 7.4375V26.5625C0.5 27.8125 0.8125 28.9688 1.4375 30.0312C2.0625 31.0938 2.90625 31.9375 3.96875 32.5625C5.03125 33.1875 6.1875 33.5 7.4375 33.5H26.5625C27.8125 33.5 28.9688 33.1875 30.0312 32.5625C31.0938 31.9375 31.9375 31.0938 32.5625 30.0312C33.1875 28.9688 33.5 27.8125 33.5 26.5625V7.4375C33.5 6.1875 33.1875 5.03125 32.5625 3.96875C31.9375 2.90625 31.0938 2.0625 30.0312 1.4375C28.9688 0.8125 27.8125 0.5 26.5625 0.5H7.4375ZM7.4375 3.5H26.5625C27.6562 3.5 28.5781 3.89062 29.3281 4.67188C30.1094 5.42188 30.5 6.34375 30.5 7.4375V26.5625C30.5 27.6562 30.1094 28.5938 29.3281 29.375C28.5781 30.125 27.6562 30.5 26.5625 30.5H7.4375C6.34375 30.5 5.40625 30.125 4.625 29.375C3.875 28.5938 3.5 27.6562 3.5 26.5625V7.4375C3.5 6.34375 3.875 5.42188 4.625 4.67188C5.40625 3.89062 6.34375 3.5 7.4375 3.5ZM17 6.82812C15.0312 6.82812 13.2031 7.23438 11.5156 8.04688C9.85938 8.82812 8.53125 9.90625 7.53125 11.2812C6.5625 12.625 6.07812 14.0938 6.07812 15.6875C6.07812 17.125 6.46875 18.4688 7.25 19.7188C8.0625 20.9688 9.15625 22.0156 10.5312 22.8594C11.9375 23.6719 13.5 24.1875 15.2188 24.4062C15.75 24.5312 16.0625 24.7188 16.1562 24.9688C16.25 25.1875 16.2656 25.5156 16.2031 25.9531L16.0625 26.9375C16 27.1875 16.0156 27.375 16.1094 27.5C16.2031 27.7188 16.4844 27.7344 16.9531 27.5469C17.4219 27.3281 18.1875 26.8906 19.25 26.2344C20.4375 25.4531 21.5469 24.6562 22.5781 23.8438C23.8906 22.8438 24.8906 21.9375 25.5781 21.125C27.1406 19.4062 27.9219 17.5938 27.9219 15.6875C27.9219 14.0938 27.4219 12.625 26.4219 11.2812C25.4531 9.90625 24.125 8.82812 22.4375 8.04688C20.7812 7.23438 18.9688 6.82812 17 6.82812ZM10.5781 13.1094C10.7344 13.1094 10.8594 13.1719 10.9531 13.2969C11.0781 13.3906 11.1406 13.5156 11.1406 13.6719V17.4219H12.7344C12.8906 17.4219 13.0156 17.4844 13.1094 17.6094C13.2344 17.7344 13.2969 17.875 13.2969 18.0312C13.2969 18.1875 13.2344 18.3281 13.1094 18.4531C13.0156 18.5469 12.8906 18.5938 12.7344 18.5938H10.5781C10.4219 18.5938 10.2812 18.5469 10.1562 18.4531C10.0312 18.3281 9.96875 18.1875 9.96875 18.0312V13.6719C9.96875 13.5156 10.0312 13.3906 10.1562 13.2969C10.2812 13.1719 10.4219 13.1094 10.5781 13.1094ZM14.4219 13.1094C14.5781 13.1094 14.7031 13.1719 14.7969 13.2969C14.9219 13.3906 14.9844 13.5156 14.9844 13.6719V18.0312C14.9844 18.1875 14.9219 18.3281 14.7969 18.4531C14.7031 18.5469 14.5781 18.5938 14.4219 18.5938C14.2656 18.5938 14.125 18.5469 14 18.4531C13.875 18.3281 13.8125 18.1875 13.8125 18.0312V13.6719C13.8125 13.5156 13.875 13.3906 14 13.2969C14.125 13.1719 14.2656 13.1094 14.4219 13.1094ZM16.2031 13.1094C16.2344 13.1094 16.2812 13.1094 16.3438 13.1094H16.3906C16.5469 13.1094 16.6875 13.1875 16.8125 13.3438L19.0625 16.3438V13.6719C19.0625 13.5156 19.1094 13.3906 19.2031 13.2969C19.3281 13.1719 19.4688 13.1094 19.625 13.1094C19.7812 13.1094 19.9062 13.1719 20 13.2969C20.125 13.3906 20.1875 13.5156 20.1875 13.6719V18.0312C20.1875 18.2812 20.0625 18.4531 19.8125 18.5469L19.625 18.5938C19.4375 18.5938 19.2812 18.5156 19.1562 18.3594L16.9531 15.3125V18.0312C16.9531 18.1875 16.8906 18.3281 16.7656 18.4531C16.6719 18.5469 16.5469 18.5938 16.3906 18.5938C16.2344 18.5938 16.0938 18.5469 15.9688 18.4531C15.8438 18.3281 15.7812 18.1875 15.7812 18.0312V13.6719C15.7812 13.5469 15.8125 13.4375 15.875 13.3438C15.9688 13.2188 16.0781 13.1406 16.2031 13.1094ZM21.5469 13.1094H23.7031C23.8594 13.1094 23.9844 13.1719 24.0781 13.2969C24.2031 13.3906 24.2656 13.5156 24.2656 13.6719C24.2656 13.8281 24.2031 13.9688 24.0781 14.0938C23.9844 14.1875 23.8594 14.2344 23.7031 14.2344H22.1094V15.2656H23.7031C23.8594 15.2656 23.9844 15.3281 24.0781 15.4531C24.2031 15.5469 24.2656 15.6719 24.2656 15.8281C24.2656 15.9844 24.2031 16.125 24.0781 16.25C23.9844 16.375 23.8594 16.4375 23.7031 16.4375H22.1094V17.4219H23.7031C23.8594 17.4219 23.9844 17.4844 24.0781 17.6094C24.2031 17.7344 24.2656 17.875 24.2656 18.0312C24.2656 18.1875 24.2031 18.3281 24.0781 18.4531C23.9844 18.5469 23.8594 18.5938 23.7031 18.5938H21.5469C21.3906 18.5938 21.25 18.5469 21.125 18.4531C21.0312 18.3281 20.9844 18.1875 20.9844 18.0312V13.6719C20.9844 13.5156 21.0312 13.3906 21.125 13.2969C21.25 13.1719 21.3906 13.1094 21.5469 13.1094Z" fill="#1BA831"/>
</svg>
