<svg width="24" height="29" viewBox="0 0 24 29" fill="none" xmlns="http://www.w3.org/2000/svg">
<path d="M2.612 28H6.104L9.92 20.872C10.604 19.576 11.288 18.208 12.044 16.624H12.188C13.052 18.208 13.772 19.576 14.456 20.872L18.344 28H22.016L14.312 14.536L21.512 1.612H18.02L14.492 8.344C13.844 9.568 13.34 10.684 12.62 12.196H12.476C11.612 10.684 11.072 9.568 10.388 8.344L6.788 1.612H3.116L10.316 14.356L2.612 28Z" fill="black"/>
<path d="M2.612 28L1.74122 27.5083L0.898956 29H2.612V28ZM6.104 28V29H6.70293L6.98561 28.472L6.104 28ZM9.92 20.872L10.8016 21.344L10.8044 21.3388L9.92 20.872ZM12.044 16.624V15.624H11.4132L11.1415 16.1933L12.044 16.624ZM12.188 16.624L13.0659 16.1451L12.7816 15.624H12.188V16.624ZM14.456 20.872L13.5715 21.3388L13.5781 21.3509L14.456 20.872ZM18.344 28L17.4661 28.4789L17.7504 29H18.344V28ZM22.016 28V29H23.7403L22.884 27.5034L22.016 28ZM14.312 14.536L13.4384 14.0493L13.1636 14.5426L13.444 15.0326L14.312 14.536ZM21.512 1.612L22.3856 2.09867L23.2138 0.611999H21.512V1.612ZM18.02 1.612V0.611999H17.4151L17.1343 1.14781L18.02 1.612ZM14.492 8.344L15.3758 8.81189L15.3777 8.80818L14.492 8.344ZM12.62 12.196V13.196H13.2514L13.5229 12.6259L12.62 12.196ZM12.476 12.196L11.6078 12.6921L11.8957 13.196H12.476V12.196ZM10.388 8.344L9.50617 8.81557L9.51054 8.82374L9.51506 8.83182L10.388 8.344ZM6.788 1.612L7.66983 1.14043L7.38725 0.611999H6.788V1.612ZM3.116 1.612V0.611999H1.40247L2.24535 2.10389L3.116 1.612ZM10.316 14.356L11.1868 14.8477L11.4645 14.3559L11.1867 13.8641L10.316 14.356ZM2.612 29H6.104V27H2.612V29ZM6.98561 28.472L10.8016 21.344L9.03839 20.4L5.22239 27.528L6.98561 28.472ZM10.8044 21.3388C11.4957 20.0288 12.1858 18.6486 12.9465 17.0547L11.1415 16.1933C10.3902 17.7674 9.71226 19.1232 9.03562 20.4052L10.8044 21.3388ZM12.044 17.624H12.188V15.624H12.044V17.624ZM11.3101 17.1029C12.1702 18.6798 12.887 20.0416 13.5716 21.3388L15.3404 20.4052C14.657 19.1104 13.9338 17.7362 13.0659 16.1451L11.3101 17.1029ZM13.5781 21.3509L17.4661 28.4789L19.2219 27.5211L15.3339 20.3931L13.5781 21.3509ZM18.344 29H22.016V27H18.344V29ZM22.884 27.5034L15.18 14.0394L13.444 15.0326L21.148 28.4966L22.884 27.5034ZM15.1856 15.0227L22.3856 2.09867L20.6384 1.12532L13.4384 14.0493L15.1856 15.0227ZM21.512 0.611999H18.02V2.612H21.512V0.611999ZM17.1343 1.14781L13.6063 7.87982L15.3777 8.80818L18.9057 2.07618L17.1343 1.14781ZM13.6082 7.87611C12.947 9.12507 12.4269 10.2757 11.7171 11.7661L13.5229 12.6259C14.2531 11.0923 14.741 10.0109 15.3758 8.81189L13.6082 7.87611ZM12.62 11.196H12.476V13.196H12.62V11.196ZM13.3442 11.6999C12.9204 10.9582 12.5755 10.3127 12.2484 9.69441C11.9229 9.07899 11.61 8.48089 11.2609 7.85618L9.51506 8.83182C9.84995 9.43111 10.1491 10.003 10.4806 10.6296C10.8105 11.2533 11.1676 11.9218 11.6078 12.6921L13.3442 11.6999ZM11.2698 7.87243L7.66983 1.14043L5.90617 2.08357L9.50617 8.81557L11.2698 7.87243ZM6.788 0.611999H3.116V2.612H6.788V0.611999ZM2.24535 2.10389L9.44535 14.8479L11.1867 13.8641L3.98665 1.1201L2.24535 2.10389ZM9.44522 13.8643L1.74122 27.5083L3.48278 28.4917L11.1868 14.8477L9.44522 13.8643Z" fill="black"/>
</svg>
